<svg xmlns="http://www.w3.org/2000/svg" width="100" height="40" viewBox="0 0 100 40" fill="currentColor">
    <line y1="21" x2="20" y2="21" stroke="currentColor" stroke-width="2"/>
    <line x1="82" y1="21" x2="100" y2="21" stroke="currentColor" stroke-width="2"/>
    <path d="M38.0711 14.9289C39.7092 16.5671 40.7203 18.7151 40.9499 21H40.9479C40.7184 18.7156 39.7075 16.5681 
         38.0697 14.9303C36.1947 13.0553 33.6516 12.002 31 12.002C28.3484 12.002 25.8053 13.0553 23.9303 14.9303C22.2925 
         16.5681 21.2816 18.7156 21.0521 21H21.0501C21.2797 18.7151 22.2908 16.5671 23.9289 14.9289C25.8043 13.0536
         28.3478 12 31 12C33.6522 12 36.1957 13.0536 38.0711 14.9289Z" stroke="currentColor" stroke-width="2"/>
    <path d="M78.0711 14.9289C79.7092 16.5671 80.7203 18.7151 80.9499 21H80.9479C80.7184 18.7156 79.7075
          16.5681 78.0697 14.9303C76.1947 13.0553 73.6516 12.002 71 12.002C68.3484 12.002 65.8053 13.0553 63.9303
          14.9303C62.2925 16.5681 61.2816 18.7156 61.0521 21H61.0501C61.2797 18.7151 62.2908 16.5671 63.9289 
          14.9289C65.8043 13.0536 68.3478 12 71 12C73.6522 12 76.1957 13.0536 78.0711 14.9289Z" 
          stroke="currentColor" stroke-width="2"/>
    <path d="M58.0711 14.9289C59.7092 16.5671 60.7203 18.7151 60.9499 21H60.9479C60.7184 18.7156 59.7075 16.5681 
          58.0697 14.9303C56.1947 13.0553 53.6516 12.002 51 12.002C48.3484 12.002 45.8053 13.0553 43.9303 
          14.9303C42.2925 16.5681 41.2816 18.7156 41.0521 21H41.0501C41.2797 18.7151 42.2908 16.5671 
          43.9289 14.9289C45.8043 13.0536 48.3478 12 51 12C53.6522 12 56.1957 13.0536 58.0711 
          14.9289Z" stroke="currentColor" stroke-width="2"/>
</svg>