<svg xmlns="http://www.w3.org/2000/svg" width="100" height="11" viewBox="0 0 100 11" fill="none">
    <line y1="10" x2="20" y2="10" stroke="black" stroke-width="2"/>
    <line x1="82" y1="10" x2="100" y2="10" stroke="black" stroke-width="2"/>
    <path d="M38.0711 3.92893C39.7092 5.5671 40.7203 7.71511 40.9499 10H40.9479C40.7184 7.71563 39.7075 5.56812 38.0697 3.93032C36.1947 2.05532 33.6516 1.00196 31 1.00196C28.3484 1.00196 25.8053 2.05532 23.9303 3.93032C22.2925 5.56811 21.2816 7.71563 21.0521 10H21.0501C21.2797 7.7151 22.2908 5.5671 23.9289 3.92893C25.8043 2.05357 28.3478 1 31 1C33.6522 1 36.1957 2.05357 38.0711 3.92893Z" stroke="black" stroke-width="2"/>
    <path d="M78.0711 3.92893C79.7092 5.5671 80.7203 7.71511 80.9499 10H80.9479C80.7184 7.71563 79.7075 5.56812 78.0697 3.93032C76.1947 2.05532 73.6516 1.00196 71 1.00196C68.3484 1.00196 65.8053 2.05532 63.9303 3.93032C62.2925 5.56811 61.2816 7.71563 61.0521 10H61.0501C61.2797 7.7151 62.2908 5.5671 63.9289 3.92893C65.8043 2.05357 68.3478 1 71 1C73.6522 1 76.1957 2.05357 78.0711 3.92893Z" stroke="black" stroke-width="2"/>
    <path d="M58.0711 3.92893C59.7092 5.5671 60.7203 7.71511 60.9499 10H60.9479C60.7184 7.71563 59.7075 5.56812 58.0697 3.93032C56.1947 2.05532 53.6516 1.00196 51 1.00196C48.3484 1.00196 45.8053 2.05532 43.9303 3.93032C42.2925 5.56811 41.2816 7.71563 41.0521 10H41.0501C41.2797 7.7151 42.2908 5.5671 43.9289 3.92893C45.8043 2.05357 48.3478 1 51 1C53.6522 1 56.1957 2.05357 58.0711 3.92893Z" stroke="black" stroke-width="2"/>
</svg>